<svg preserveAspectRatio="none" width="100%" height="100%" overflow="visible" style="display: block;" viewBox="0 0 34 34" fill="none" xmlns="http://www.w3.org/2000/svg">
<g id="error">
<mask id="mask0_0_4" style="mask-type:alpha" maskUnits="userSpaceOnUse" x="0" y="0" width="34" height="34">
<rect id="Bounding box" width="34" height="34" fill="var(--fill-0, #D9D9D9)"/>
</mask>
<g mask="url(#mask0_0_4)">
<path id="error_2" d="M18.0094 23.676C18.2809 23.4045 18.4167 23.0681 18.4167 22.6667C18.4167 22.2653 18.2809 21.9288 18.0094 21.6573C17.7378 21.3858 17.4014 21.25 17 21.25C16.5986 21.25 16.2622 21.3858 15.9906 21.6573C15.7191 21.9288 15.5833 22.2653 15.5833 22.6667C15.5833 23.0681 15.7191 23.4045 15.9906 23.676C16.2622 23.9476 16.5986 24.0833 17 24.0833C17.4014 24.0833 17.7378 23.9476 18.0094 23.676ZM15.5833 18.4167H18.4167V9.91667H15.5833V18.4167ZM17 31.1667C15.0403 31.1667 13.1986 30.7948 11.475 30.051C9.75139 29.3073 8.25208 28.2979 6.97708 27.0229C5.70208 25.7479 4.69271 24.2486 3.94896 22.525C3.20521 20.8014 2.83333 18.9597 2.83333 17C2.83333 15.0403 3.20521 13.1986 3.94896 11.475C4.69271 9.75139 5.70208 8.25208 6.97708 6.97708C8.25208 5.70208 9.75139 4.69271 11.475 3.94896C13.1986 3.20521 15.0403 2.83333 17 2.83333C18.9597 2.83333 20.8014 3.20521 22.525 3.94896C24.2486 4.69271 25.7479 5.70208 27.0229 6.97708C28.2979 8.25208 29.3073 9.75139 30.051 11.475C30.7948 13.1986 31.1667 15.0403 31.1667 17C31.1667 18.9597 30.7948 20.8014 30.051 22.525C29.3073 24.2486 28.2979 25.7479 27.0229 27.0229C25.7479 28.2979 24.2486 29.3073 22.525 30.051C20.8014 30.7948 18.9597 31.1667 17 31.1667ZM17 28.3333C20.1639 28.3333 22.8438 27.2354 25.0396 25.0396C27.2354 22.8438 28.3333 20.1639 28.3333 17C28.3333 13.8361 27.2354 11.1563 25.0396 8.96042C22.8438 6.76458 20.1639 5.66667 17 5.66667C13.8361 5.66667 11.1563 6.76458 8.96042 8.96042C6.76458 11.1563 5.66667 13.8361 5.66667 17C5.66667 20.1639 6.76458 22.8438 8.96042 25.0396C11.1563 27.2354 13.8361 28.3333 17 28.3333Z" fill="var(--fill-0, #2FF4BC)"/>
</g>
</g>
</svg>
