<svg preserveAspectRatio="none" width="100%" height="100%" overflow="visible" style="display: block;" viewBox="0 0 32.0726 50.9437" fill="none" xmlns="http://www.w3.org/2000/svg">
<g id="Frame 7">
<g id="Vector">
<path d="M5.10289 38.3453C5.10289 36.6901 5.94433 35.1485 7.33644 34.2531L26.1663 22.1427C26.6288 21.8452 27.2373 22.1773 27.2373 22.7273L27.2373 34.9583C27.2373 36.6351 26.374 38.1937 24.9526 39.083L6.16661 50.8367C5.70368 51.1264 5.10289 50.7936 5.10289 50.2475V38.3453Z" fill="var(--fill-0, #30CFA2)"/>
<path d="M15.8553 9.41934C12.6174 11.5387 10.8513 12.7161 6.07094 15.8951C2.60934 14.7177 0 12.4077 0 7.9932C0 3.57868 3.57868 0 7.9932 0C13.711 0 16.7383 5.29838 15.8553 9.41934Z" fill="#1A5358"/>
<path d="M5.31271 20.4385C5.31271 18.7909 6.14655 17.2552 7.5284 16.3579L30.999 1.11722C31.4614 0.816955 32.0726 1.14882 32.0726 1.70016L32.0726 13.9384C32.0726 15.586 31.2387 17.1217 29.8569 18.019L6.38635 33.2596C5.92395 33.5599 5.31276 33.228 5.31276 32.6767L5.31271 20.4385Z" fill="var(--fill-0, #30CFA2)"/>
</g>
</g>
</svg>
